<svg width="113" height="32" viewBox="0 0 113 32" fill="none" xmlns="http://www.w3.org/2000/svg">
<path d="M51.42 22.26C49.86 22.26 48.5733 21.9467 47.56 21.32C46.56 20.6933 45.86 19.8733 45.46 18.86L47.98 17.56C48.26 18.24 48.68 18.7667 49.24 19.14C49.8133 19.5133 50.56 19.7 51.48 19.7C51.9067 19.7 52.28 19.6467 52.6 19.54C52.9333 19.4333 53.2133 19.3 53.44 19.14C53.6667 18.98 53.84 18.8 53.96 18.6C54.08 18.3867 54.14 18.18 54.14 17.98C54.14 17.7133 54.0667 17.4933 53.92 17.32C53.7867 17.1333 53.58 16.9667 53.3 16.82C53.02 16.6733 52.6667 16.54 52.24 16.42C51.8133 16.2867 51.3133 16.14 50.74 15.98C50.14 15.82 49.56 15.6333 49 15.42C48.4533 15.2067 47.96 14.94 47.52 14.62C47.0933 14.3 46.7467 13.9133 46.48 13.46C46.2267 13.0067 46.1 12.46 46.1 11.82C46.1 11.18 46.2333 10.6067 46.5 10.1C46.78 9.59333 47.1467 9.16667 47.6 8.82C48.0533 8.47333 48.58 8.20667 49.18 8.02C49.7933 7.83333 50.4267 7.74 51.08 7.74C52.3333 7.74 53.4133 8.01333 54.32 8.56C55.24 9.10667 55.9467 9.86 56.44 10.82L53.88 12.1C53.32 10.9133 52.3867 10.32 51.08 10.32C50.3867 10.32 49.8333 10.48 49.42 10.8C49.02 11.1067 48.82 11.46 48.82 11.86C48.82 12.1267 48.88 12.3467 49 12.52C49.12 12.68 49.3 12.8267 49.54 12.96C49.7933 13.0933 50.1133 13.22 50.5 13.34C50.9 13.4467 51.3667 13.58 51.9 13.74C52.5133 13.9133 53.1133 14.1067 53.7 14.32C54.3 14.5333 54.8333 14.8067 55.3 15.14C55.78 15.46 56.16 15.8533 56.44 16.32C56.7333 16.7867 56.88 17.3667 56.88 18.06C56.88 18.7 56.74 19.28 56.46 19.8C56.18 20.32 55.7933 20.76 55.3 21.12C54.82 21.48 54.2467 21.76 53.58 21.96C52.9133 22.16 52.1933 22.26 51.42 22.26ZM63.5209 22.28C62.7876 22.28 62.1009 22.1467 61.4609 21.88C60.8209 21.6 60.2609 21.22 59.7809 20.74C59.3009 20.26 58.9209 19.7 58.6409 19.06C58.3743 18.42 58.2409 17.74 58.2409 17.02C58.2409 16.3 58.3743 15.62 58.6409 14.98C58.9209 14.34 59.3009 13.78 59.7809 13.3C60.2609 12.82 60.8209 12.4467 61.4609 12.18C62.1009 11.9 62.7876 11.76 63.5209 11.76C64.2409 11.76 64.9143 11.9 65.5409 12.18C66.1809 12.4467 66.7409 12.82 67.2209 13.3C67.7009 13.78 68.0743 14.34 68.3409 14.98C68.6209 15.62 68.7609 16.3 68.7609 17.02C68.7609 17.74 68.6209 18.42 68.3409 19.06C68.0743 19.7 67.7009 20.26 67.2209 20.74C66.7409 21.22 66.1809 21.6 65.5409 21.88C64.9143 22.1467 64.2409 22.28 63.5209 22.28ZM63.5009 19.8C63.8876 19.8 64.2476 19.7267 64.5809 19.58C64.9276 19.4333 65.2276 19.24 65.4809 19C65.7343 18.7467 65.9343 18.4533 66.0809 18.12C66.2276 17.7733 66.3009 17.4067 66.3009 17.02C66.3009 16.6333 66.2276 16.2733 66.0809 15.94C65.9343 15.5933 65.7343 15.2933 65.4809 15.04C65.2276 14.7867 64.9276 14.5867 64.5809 14.44C64.2476 14.2933 63.8876 14.22 63.5009 14.22C63.1143 14.22 62.7476 14.2933 62.4009 14.44C62.0676 14.5867 61.7743 14.7867 61.5209 15.04C61.2809 15.2933 61.0876 15.5933 60.9409 15.94C60.7943 16.2733 60.7209 16.6333 60.7209 17.02C60.7209 17.4067 60.7943 17.7733 60.9409 18.12C61.0876 18.4533 61.2809 18.7467 61.5209 19C61.7743 19.24 62.0676 19.4333 62.4009 19.58C62.7476 19.7267 63.1143 19.8 63.5009 19.8ZM70.1048 8H72.5848V12.84C72.9048 12.5333 73.2782 12.2867 73.7048 12.1C74.1315 11.9 74.5982 11.8 75.1048 11.8C75.4648 11.8 75.8715 11.86 76.3248 11.98C76.7915 12.0867 77.2248 12.3 77.6248 12.62C78.0382 12.9267 78.3848 13.3533 78.6648 13.9C78.9448 14.4467 79.0915 15.1533 79.1048 16.02V22H76.6248V16.08C76.6248 15.6667 76.5582 15.3267 76.4248 15.06C76.2915 14.7933 76.1248 14.58 75.9248 14.42C75.7248 14.26 75.4982 14.1467 75.2448 14.08C75.0048 14.0133 74.7648 13.98 74.5248 13.98C74.3248 13.98 74.1182 14.0133 73.9048 14.08C73.7048 14.1333 73.5115 14.2267 73.3248 14.36C73.1515 14.4933 72.9982 14.6733 72.8648 14.9C72.7448 15.1133 72.6515 15.38 72.5848 15.7V22H70.1048V8ZM81.0666 8H83.5466V13.1C83.8932 12.7 84.3066 12.3733 84.7866 12.12C85.2666 11.8667 85.8266 11.74 86.4666 11.74C87.2399 11.74 87.9332 11.8733 88.5466 12.14C89.1732 12.4067 89.6999 12.78 90.1266 13.26C90.5666 13.7267 90.8999 14.2867 91.1266 14.94C91.3666 15.58 91.4866 16.2733 91.4866 17.02C91.4866 17.7667 91.3666 18.46 91.1266 19.1C90.8999 19.74 90.5666 20.3 90.1266 20.78C89.6999 21.2467 89.1732 21.6133 88.5466 21.88C87.9332 22.1467 87.2399 22.28 86.4666 22.28C85.8266 22.28 85.2666 22.1533 84.7866 21.9C84.3066 21.6467 83.8932 21.32 83.5466 20.92V22H81.0666V8ZM86.4066 19.96C86.8066 19.96 87.1666 19.8867 87.4866 19.74C87.8199 19.58 88.0999 19.3667 88.3266 19.1C88.5666 18.8333 88.7466 18.52 88.8666 18.16C88.9999 17.8 89.0666 17.42 89.0666 17.02C89.0666 16.62 88.9999 16.2467 88.8666 15.9C88.7466 15.54 88.5666 15.2267 88.3266 14.96C88.0999 14.68 87.8199 14.4667 87.4866 14.32C87.1666 14.16 86.8066 14.08 86.4066 14.08C85.9932 14.08 85.6132 14.1533 85.2666 14.3C84.9332 14.4467 84.6399 14.6533 84.3866 14.92C84.1332 15.1733 83.9332 15.48 83.7866 15.84C83.6532 16.1867 83.5866 16.5733 83.5866 17C83.5866 17.4267 83.6532 17.82 83.7866 18.18C83.9332 18.54 84.1332 18.8533 84.3866 19.12C84.6399 19.3867 84.9332 19.5933 85.2666 19.74C85.6132 19.8867 85.9932 19.96 86.4066 19.96ZM98.3202 11.74C99.0668 11.74 99.7468 11.88 100.36 12.16C100.973 12.4267 101.5 12.8 101.94 13.28C102.38 13.76 102.72 14.32 102.96 14.96C103.213 15.6 103.34 16.2867 103.34 17.02C103.34 17.34 103.313 17.6333 103.26 17.9H95.5202C95.6935 18.58 96.0402 19.1267 96.5602 19.54C97.0935 19.94 97.7468 20.14 98.5202 20.14C99.0135 20.14 99.4802 20.04 99.9202 19.84C100.373 19.6267 100.713 19.3467 100.94 19L102.84 20.12C102.373 20.8 101.773 21.3267 101.04 21.7C100.307 22.0733 99.4535 22.26 98.4802 22.26C97.6668 22.26 96.9202 22.1267 96.2402 21.86C95.5735 21.5933 95.0002 21.2267 94.5202 20.76C94.0535 20.28 93.6868 19.72 93.4202 19.08C93.1668 18.44 93.0402 17.7467 93.0402 17C93.0402 16.2533 93.1668 15.56 93.4202 14.92C93.6868 14.28 94.0468 13.7267 94.5002 13.26C94.9668 12.7933 95.5268 12.4267 96.1802 12.16C96.8335 11.88 97.5468 11.74 98.3202 11.74ZM101 15.96C100.907 15.3067 100.613 14.8 100.12 14.44C99.6268 14.08 99.0135 13.9 98.2802 13.9C97.8935 13.9 97.5335 13.96 97.2002 14.08C96.8668 14.1867 96.5735 14.3333 96.3202 14.52C96.0668 14.7067 95.8668 14.9267 95.7202 15.18C95.5735 15.42 95.4935 15.68 95.4802 15.96H101ZM111.005 22C110.712 22.0267 110.432 22.0467 110.165 22.06C109.912 22.0867 109.665 22.1 109.425 22.1C108.932 22.1 108.485 22.0533 108.085 21.96C107.698 21.8533 107.365 21.6733 107.085 21.42C106.818 21.1667 106.612 20.8267 106.465 20.4C106.332 19.96 106.265 19.4067 106.265 18.74V14.22H104.385V12H106.265V9.54L108.745 8.7V12H110.965V14.22H108.745V18.58C108.745 19.0467 108.858 19.3667 109.085 19.54C109.312 19.7 109.645 19.78 110.085 19.78C110.338 19.78 110.645 19.76 111.005 19.72V22Z" fill="#4B6098"/>
<path fill-rule="evenodd" clip-rule="evenodd" d="M31.7333 24.4922L31.7346 24.4962C32.1746 25.0695 32.3853 26.9747 29.3679 26.6361C28.1289 26.5151 26.9111 26.2327 25.7453 25.7961C24.834 25.4468 23.9625 25.0016 23.1453 24.4682C21.9342 24.9556 20.6514 25.2411 19.3479 25.3135C18.4177 26.5617 17.2086 27.5751 15.817 28.2728C14.4254 28.9705 12.89 29.3332 11.3333 29.332C10.2829 29.3329 9.23899 29.1682 8.23993 28.844C7.65326 29.184 6.98659 29.5159 6.25059 29.7946C4.75726 30.3599 3.51859 30.5719 2.62793 30.6346C1.96126 30.6839 1.49059 30.6492 1.25859 30.6226C0.749261 30.5639 0.293261 30.2732 0.0959277 29.7853C0.011185 29.5741 -0.0181105 29.3448 0.0108293 29.1191C0.039769 28.8934 0.125981 28.6789 0.261261 28.496C0.597261 28.036 0.906594 27.5547 1.19993 27.0667C1.77059 26.1148 2.33059 25.0882 2.47193 23.9709C1.84667 22.7773 1.4691 21.4697 1.3619 20.1265C1.2547 18.7833 1.42008 17.4324 1.8481 16.1547C2.27612 14.8771 2.95796 13.6991 3.85266 12.6915C4.74736 11.684 5.83648 10.8677 7.05459 10.2916C7.48107 8.68033 8.23855 7.17563 9.27874 5.87332C10.3189 4.57102 11.619 3.49969 13.0962 2.7276C14.5733 1.95551 16.1951 1.49959 17.8583 1.38891C19.5214 1.27823 21.1893 1.51522 22.7557 2.08475C24.3222 2.65429 25.7528 3.5439 26.9564 4.69687C28.16 5.84985 29.1102 7.24091 29.7465 8.78141C30.3827 10.3219 30.691 11.978 30.6518 13.6443C30.6126 15.3105 30.2266 16.9503 29.5186 18.4592C29.2653 20.7577 30.4213 22.6923 31.7319 24.4922H31.7333ZM9.33326 13.3327C9.33399 11.9264 9.65255 10.5384 10.2651 9.27249C10.8777 8.00656 11.7685 6.89544 12.8709 6.02214C13.9733 5.14885 15.2588 4.53597 16.6313 4.22929C18.0039 3.92262 19.428 3.93009 20.7973 4.25113C22.1665 4.57218 23.4455 5.19851 24.5387 6.08332C25.6319 6.96812 26.511 8.08853 27.1102 9.3608C27.7095 10.6331 28.0135 12.0243 27.9995 13.4306C27.9854 14.8369 27.6538 16.2218 27.0293 17.4819C26.9652 17.6106 26.9225 17.7488 26.9026 17.8912C26.6106 19.9911 27.1026 21.9057 28.1093 23.7442C26.6531 23.3899 25.2805 22.7535 24.0693 21.871C23.8747 21.7299 23.6456 21.6439 23.4062 21.6224C23.1668 21.6008 22.926 21.6443 22.7093 21.7483C21.2862 22.4322 19.7129 22.7438 18.1366 22.6542C16.5603 22.5645 15.0325 22.0765 13.6962 21.2357C12.3598 20.395 11.2586 19.229 10.4956 17.8468C9.73256 16.4646 9.33265 14.9115 9.33326 13.3327ZM6.67193 13.6714C6.74692 16.3238 7.69866 18.8767 9.37837 20.9309C11.0581 22.9852 13.3711 24.4251 15.9559 25.0255C14.6502 26.0887 13.0171 26.6681 11.3333 26.6654C10.3599 26.6654 9.43593 26.4774 8.59059 26.1361C8.39271 26.0561 8.17849 26.0247 7.96596 26.0447C7.75343 26.0646 7.54879 26.1353 7.36926 26.2508C6.78393 26.6281 6.08926 27.0041 5.30526 27.3014C4.84165 27.4781 4.36738 27.6255 3.88526 27.7427C4.32926 26.9334 4.77859 25.9695 4.98393 25.0628C5.08659 24.6135 5.14393 24.1775 5.16793 23.7682C5.18419 23.505 5.12202 23.2428 4.98926 23.0149C4.33873 21.8969 3.99728 20.6259 3.99993 19.3324C3.99993 17.0526 5.03993 15.0167 6.67193 13.6714Z" fill="#4B6098"/>
</svg>
