<svg width="105" height="32" viewBox="0 0 105 32" fill="none" xmlns="http://www.w3.org/2000/svg">
<path d="M26.427 2.58337H5.57366C3.96835 2.58337 2.66699 3.84407 2.66699 5.39921V25.6009C2.66699 27.156 3.96835 28.4167 5.57366 28.4167H26.427C28.0323 28.4167 29.3337 27.156 29.3337 25.6009V5.39921C29.3337 3.84407 28.0323 2.58337 26.427 2.58337Z" stroke="#4B6098" stroke-width="2" stroke-linecap="round" stroke-linejoin="round"/>
<path d="M9.33301 2.58337V28.4167" stroke="#4B6098" stroke-width="2" stroke-linecap="round" stroke-linejoin="round"/>
<path d="M22.667 2.58337V28.4167" stroke="#4B6098" stroke-width="2" stroke-linecap="round" stroke-linejoin="round"/>
<path d="M2.66699 15.5H29.3337" stroke="#4B6098" stroke-width="2" stroke-linecap="round" stroke-linejoin="round"/>
<path d="M2.66699 9.04163H9.33366" stroke="#4B6098" stroke-width="2" stroke-linecap="round" stroke-linejoin="round"/>
<path d="M2.66699 21.9584H9.33366" stroke="#4B6098" stroke-width="2" stroke-linecap="round" stroke-linejoin="round"/>
<path d="M22.667 21.9584H29.3337" stroke="#4B6098" stroke-width="2" stroke-linecap="round" stroke-linejoin="round"/>
<path d="M22.667 9.04163H29.3337" stroke="#4B6098" stroke-width="2" stroke-linecap="round" stroke-linejoin="round"/>
<path d="M46.06 9H54.44V11.48H48.66V14.66H53.94V17.12H48.66V20.52H54.54V23H46.06V9ZM65.2953 8.68C64.882 9.24 64.3753 9.67333 63.7753 9.98C63.1886 10.2867 62.5286 10.44 61.7953 10.44C61.0753 10.44 60.4153 10.2867 59.8153 9.98C59.2153 9.67333 58.702 9.24 58.2753 8.68L59.3953 7.76C59.6753 8.14667 60.0153 8.45333 60.4153 8.68C60.8286 8.90667 61.2886 9.02 61.7953 9.02C62.8086 9.02 63.6153 8.6 64.2153 7.76L65.2953 8.68ZM64.2353 21.96C63.8886 22.3467 63.4753 22.6667 62.9953 22.92C62.5286 23.16 61.9753 23.28 61.3353 23.28C60.562 23.28 59.862 23.1467 59.2353 22.88C58.622 22.6133 58.0953 22.2467 57.6553 21.78C57.2286 21.3 56.8953 20.74 56.6553 20.1C56.4286 19.46 56.3153 18.7667 56.3153 18.02C56.3153 17.2733 56.4286 16.58 56.6553 15.94C56.8953 15.2867 57.2286 14.7267 57.6553 14.26C58.0953 13.78 58.622 13.4067 59.2353 13.14C59.862 12.8733 60.562 12.74 61.3353 12.74C61.9753 12.74 62.5286 12.8667 62.9953 13.12C63.4753 13.36 63.8886 13.6733 64.2353 14.06V13H66.6953V22.5C66.6953 23.22 66.5553 23.8733 66.2753 24.46C65.9953 25.0467 65.6086 25.5467 65.1153 25.96C64.6353 26.3733 64.0553 26.6933 63.3753 26.92C62.7086 27.1467 61.982 27.26 61.1953 27.26C60.6086 27.26 60.0486 27.2 59.5153 27.08C58.982 26.96 58.4886 26.7933 58.0353 26.58C57.582 26.3667 57.182 26.1133 56.8353 25.82C56.502 25.5267 56.242 25.2 56.0553 24.84L58.1753 23.62C58.362 23.98 58.722 24.2933 59.2553 24.56C59.7886 24.84 60.4553 24.98 61.2553 24.98C61.682 24.98 62.0753 24.92 62.4353 24.8C62.7953 24.68 63.1086 24.5067 63.3753 24.28C63.642 24.0667 63.8486 23.8067 63.9953 23.5C64.1553 23.2067 64.2353 22.8733 64.2353 22.5V21.96ZM61.3953 20.96C61.8086 20.96 62.1886 20.8867 62.5353 20.74C62.882 20.5933 63.182 20.3867 63.4353 20.12C63.6886 19.8533 63.882 19.54 64.0153 19.18C64.162 18.82 64.2353 18.4267 64.2353 18C64.2353 17.5733 64.162 17.1867 64.0153 16.84C63.882 16.48 63.6886 16.1733 63.4353 15.92C63.182 15.6533 62.882 15.4467 62.5353 15.3C62.1886 15.1533 61.8086 15.08 61.3953 15.08C60.9953 15.08 60.6353 15.16 60.3153 15.32C59.9953 15.4667 59.7153 15.68 59.4753 15.96C59.2486 16.2267 59.0686 16.54 58.9353 16.9C58.8153 17.2467 58.7553 17.62 58.7553 18.02C58.7553 18.42 58.8153 18.8 58.9353 19.16C59.0686 19.52 59.2486 19.8333 59.4753 20.1C59.7153 20.3667 59.9953 20.58 60.3153 20.74C60.6353 20.8867 60.9953 20.96 61.3953 20.96ZM70.6092 10.68C70.2492 10.68 69.9359 10.5533 69.6692 10.3C69.4026 10.0467 69.2692 9.73333 69.2692 9.36C69.2692 8.98667 69.4026 8.67333 69.6692 8.42C69.9359 8.15333 70.2492 8.02 70.6092 8.02C70.9692 8.02 71.2759 8.15333 71.5292 8.42C71.7959 8.67333 71.9292 8.98667 71.9292 9.36C71.9292 9.73333 71.7959 10.0467 71.5292 10.3C71.2759 10.5533 70.9692 10.68 70.6092 10.68ZM69.3492 13H71.8092V23H69.3492V13ZM80.1167 23C79.8234 23.0267 79.5434 23.0467 79.2767 23.06C79.0234 23.0867 78.7767 23.1 78.5367 23.1C78.0434 23.1 77.5967 23.0533 77.1967 22.96C76.8101 22.8533 76.4767 22.6733 76.1967 22.42C75.9301 22.1667 75.7234 21.8267 75.5767 21.4C75.4434 20.96 75.3767 20.4067 75.3767 19.74V15.22H73.4967V13H75.3767V10.54L77.8567 9.7V13H80.0767V15.22H77.8567V19.58C77.8567 20.0467 77.9701 20.3667 78.1967 20.54C78.4234 20.7 78.7567 20.78 79.1967 20.78C79.4501 20.78 79.7567 20.76 80.1167 20.72V23ZM83.7631 10.68C83.4031 10.68 83.0898 10.5533 82.8231 10.3C82.5565 10.0467 82.4231 9.73333 82.4231 9.36C82.4231 8.98667 82.5565 8.67333 82.8231 8.42C83.0898 8.15333 83.4031 8.02 83.7631 8.02C84.1231 8.02 84.4298 8.15333 84.6831 8.42C84.9498 8.67333 85.0831 8.98667 85.0831 9.36C85.0831 9.73333 84.9498 10.0467 84.6831 10.3C84.4298 10.5533 84.1231 10.68 83.7631 10.68ZM82.5031 13H84.9631V23H82.5031V13ZM103.041 23H100.561V17.02C100.561 16.6067 100.495 16.2667 100.361 16C100.228 15.7333 100.061 15.52 99.8613 15.36C99.6613 15.2 99.4346 15.0867 99.1813 15.02C98.9413 14.9533 98.7013 14.92 98.4613 14.92C98.2213 14.92 97.9879 14.96 97.7613 15.04C97.5346 15.12 97.3279 15.26 97.1413 15.46C96.9546 15.6467 96.8013 15.9 96.6813 16.22C96.5746 16.5267 96.5213 16.92 96.5213 17.4V23H94.0413V17.02C94.0413 16.6067 93.9746 16.2667 93.8413 16C93.7079 15.7333 93.5413 15.52 93.3413 15.36C93.1413 15.2 92.9146 15.0867 92.6612 15.02C92.4213 14.9533 92.1813 14.92 91.9413 14.92C91.7013 14.92 91.4613 14.96 91.2213 15.04C90.9946 15.12 90.7879 15.26 90.6013 15.46C90.4279 15.6467 90.2813 15.9 90.1613 16.22C90.0546 16.5267 90.0013 16.92 90.0013 17.4V23H87.5213V13H90.0013V13.8C90.3213 13.4933 90.6946 13.24 91.1213 13.04C91.5479 12.84 92.0146 12.74 92.5213 12.74C92.7746 12.74 93.0479 12.7667 93.3413 12.82C93.6479 12.8733 93.9546 12.9667 94.2613 13.1C94.5813 13.2333 94.8813 13.4133 95.1613 13.64C95.4546 13.8667 95.7079 14.16 95.9213 14.52C96.2279 14.0533 96.6479 13.64 97.1813 13.28C97.7279 12.92 98.3479 12.74 99.0413 12.74C99.4013 12.74 99.8079 12.8 100.261 12.92C100.728 13.0267 101.168 13.24 101.581 13.56C101.995 13.88 102.341 14.32 102.621 14.88C102.901 15.4267 103.041 16.14 103.041 17.02V23Z" fill="#4B6098"/>
</svg>
