<svg width="133" height="32" viewBox="0 0 133 32" fill="none" xmlns="http://www.w3.org/2000/svg">
<path fill-rule="evenodd" clip-rule="evenodd" d="M15.4042 1.47473C15.5892 1.38225 15.7933 1.33411 16.0002 1.33411C16.207 1.33411 16.4111 1.38225 16.5962 1.47473L29.9295 8.14139C30.1978 8.27587 30.4129 8.49694 30.54 8.76884C30.6671 9.04074 30.6987 9.34756 30.6298 9.63966C30.5608 9.93176 30.3953 10.1921 30.1601 10.3785C29.9249 10.5648 29.6336 10.6664 29.3335 10.6667H2.66683C2.3667 10.6664 2.07546 10.5648 1.84022 10.3785C1.60498 10.1921 1.43951 9.93176 1.37057 9.63966C1.30163 9.34756 1.33326 9.04074 1.46034 8.76884C1.58742 8.49694 1.80251 8.27587 2.07083 8.14139L15.4042 1.47473ZM8.31483 8.00006H23.6855L16.0002 4.15739L8.31483 8.00006ZM8.00016 12.0001C8.35378 12.0001 8.69292 12.1405 8.94297 12.3906C9.19302 12.6406 9.3335 12.9798 9.3335 13.3334V20.0001C9.3335 20.3537 9.19302 20.6928 8.94297 20.9429C8.69292 21.1929 8.35378 21.3334 8.00016 21.3334C7.64654 21.3334 7.3074 21.1929 7.05735 20.9429C6.80731 20.6928 6.66683 20.3537 6.66683 20.0001V13.3334C6.66683 12.9798 6.80731 12.6406 7.05735 12.3906C7.3074 12.1405 7.64654 12.0001 8.00016 12.0001ZM13.3335 12.0001C13.6871 12.0001 14.0263 12.1405 14.2763 12.3906C14.5264 12.6406 14.6668 12.9798 14.6668 13.3334V20.0001C14.6668 20.3537 14.5264 20.6928 14.2763 20.9429C14.0263 21.1929 13.6871 21.3334 13.3335 21.3334C12.9799 21.3334 12.6407 21.1929 12.3907 20.9429C12.1406 20.6928 12.0002 20.3537 12.0002 20.0001V13.3334C12.0002 12.9798 12.1406 12.6406 12.3907 12.3906C12.6407 12.1405 12.9799 12.0001 13.3335 12.0001ZM18.6668 12.0001C19.0205 12.0001 19.3596 12.1405 19.6096 12.3906C19.8597 12.6406 20.0002 12.9798 20.0002 13.3334V20.0001C20.0002 20.3537 19.8597 20.6928 19.6096 20.9429C19.3596 21.1929 19.0205 21.3334 18.6668 21.3334C18.3132 21.3334 17.9741 21.1929 17.724 20.9429C17.474 20.6928 17.3335 20.3537 17.3335 20.0001V13.3334C17.3335 12.9798 17.474 12.6406 17.724 12.3906C17.9741 12.1405 18.3132 12.0001 18.6668 12.0001ZM24.0002 12.0001C24.3538 12.0001 24.6929 12.1405 24.943 12.3906C25.193 12.6406 25.3335 12.9798 25.3335 13.3334V20.0001C25.3335 20.3537 25.193 20.6928 24.943 20.9429C24.6929 21.1929 24.3538 21.3334 24.0002 21.3334C23.6465 21.3334 23.3074 21.1929 23.0574 20.9429C22.8073 20.6928 22.6668 20.3537 22.6668 20.0001V13.3334C22.6668 12.9798 22.8073 12.6406 23.0574 12.3906C23.3074 12.1405 23.6465 12.0001 24.0002 12.0001ZM4.00016 24.0001C4.00016 23.6464 4.14064 23.3073 4.39069 23.0572C4.64074 22.8072 4.97987 22.6667 5.3335 22.6667H26.6668C27.0205 22.6667 27.3596 22.8072 27.6096 23.0572C27.8597 23.3073 28.0002 23.6464 28.0002 24.0001C28.0002 24.3537 27.8597 24.6928 27.6096 24.9429C27.3596 25.1929 27.0205 25.3334 26.6668 25.3334H5.3335C4.97987 25.3334 4.64074 25.1929 4.39069 24.9429C4.14064 24.6928 4.00016 24.3537 4.00016 24.0001ZM1.3335 28.0001C1.3335 27.6464 1.47397 27.3073 1.72402 27.0572C1.97407 26.8072 2.31321 26.6667 2.66683 26.6667H29.3335C29.6871 26.6667 30.0263 26.8072 30.2763 27.0572C30.5264 27.3073 30.6668 27.6464 30.6668 28.0001C30.6668 28.3537 30.5264 28.6928 30.2763 28.9429C30.0263 29.1929 29.6871 29.3334 29.3335 29.3334H2.66683C2.31321 29.3334 1.97407 29.1929 1.72402 28.9429C1.47397 28.6928 1.3335 28.3537 1.3335 28.0001Z" fill="#4B6098"/>
<path d="M54.56 23L50.1 17.42L48.72 19.02V23H46.12V9H48.72V15L53.98 9H57.34L51.84 15.4L57.82 22.98L54.56 23ZM65.9266 21.94C65.5799 22.34 65.1666 22.6667 64.6866 22.92C64.2199 23.16 63.6666 23.28 63.0266 23.28C62.2532 23.28 61.5532 23.1467 60.9266 22.88C60.3132 22.6133 59.7866 22.2467 59.3466 21.78C58.9199 21.3 58.5866 20.74 58.3466 20.1C58.1199 19.46 58.0066 18.7667 58.0066 18.02C58.0066 17.2733 58.1199 16.58 58.3466 15.94C58.5866 15.2867 58.9199 14.7267 59.3466 14.26C59.7866 13.78 60.3132 13.4067 60.9266 13.14C61.5532 12.8733 62.2532 12.74 63.0266 12.74C63.6666 12.74 64.2199 12.8667 64.6866 13.12C65.1666 13.36 65.5799 13.68 65.9266 14.08V13H68.4066V23H65.9266V21.94ZM63.0866 20.96C63.4999 20.96 63.8799 20.8867 64.2266 20.74C64.5732 20.5933 64.8732 20.3867 65.1266 20.12C65.3799 19.8533 65.5732 19.54 65.7066 19.18C65.8532 18.82 65.9266 18.4267 65.9266 18C65.9266 17.5733 65.8532 17.1867 65.7066 16.84C65.5732 16.48 65.3799 16.1733 65.1266 15.92C64.8732 15.6533 64.5732 15.4467 64.2266 15.3C63.8799 15.1533 63.4999 15.08 63.0866 15.08C62.6866 15.08 62.3266 15.16 62.0066 15.32C61.6866 15.4667 61.4066 15.68 61.1666 15.96C60.9399 16.2267 60.7599 16.54 60.6266 16.9C60.5066 17.2467 60.4466 17.62 60.4466 18.02C60.4466 18.42 60.5066 18.8 60.6266 19.16C60.7599 19.52 60.9399 19.8333 61.1666 20.1C61.4066 20.3667 61.6866 20.58 62.0066 20.74C62.3266 20.8867 62.6866 20.96 63.0866 20.96ZM76.3717 15.36C76.2384 15.32 76.0917 15.3 75.9317 15.3C75.1317 15.3 74.4584 15.5267 73.9117 15.98C73.3651 16.42 73.0917 17.06 73.0917 17.9V23H70.6117V13H73.0917V14.8C73.3051 14.3333 73.6717 13.92 74.1917 13.56C74.7251 13.1867 75.4051 13 76.2317 13H76.5517L76.3717 15.36ZM85.2133 21.94C84.8666 22.34 84.4533 22.6667 83.9733 22.92C83.5066 23.16 82.9533 23.28 82.3133 23.28C81.5399 23.28 80.8399 23.1467 80.2133 22.88C79.5999 22.6133 79.0733 22.2467 78.6333 21.78C78.2066 21.3 77.8733 20.74 77.6333 20.1C77.4066 19.46 77.2933 18.7667 77.2933 18.02C77.2933 17.2733 77.4066 16.58 77.6333 15.94C77.8733 15.2867 78.2066 14.7267 78.6333 14.26C79.0733 13.78 79.5999 13.4067 80.2133 13.14C80.8399 12.8733 81.5399 12.74 82.3133 12.74C82.9533 12.74 83.5066 12.8667 83.9733 13.12C84.4533 13.36 84.8666 13.68 85.2133 14.08V13H87.6933V23H85.2133V21.94ZM82.3733 20.96C82.7866 20.96 83.1666 20.8867 83.5133 20.74C83.8599 20.5933 84.1599 20.3867 84.4133 20.12C84.6666 19.8533 84.8599 19.54 84.9933 19.18C85.1399 18.82 85.2133 18.4267 85.2133 18C85.2133 17.5733 85.1399 17.1867 84.9933 16.84C84.8599 16.48 84.6666 16.1733 84.4133 15.92C84.1599 15.6533 83.8599 15.4467 83.5133 15.3C83.1666 15.1533 82.7866 15.08 82.3733 15.08C81.9733 15.08 81.6133 15.16 81.2933 15.32C80.9733 15.4667 80.6933 15.68 80.4533 15.96C80.2266 16.2267 80.0466 16.54 79.9133 16.9C79.7933 17.2467 79.7333 17.62 79.7333 18.02C79.7333 18.42 79.7933 18.8 79.9133 19.16C80.0466 19.52 80.2266 19.8333 80.4533 20.1C80.6933 20.3667 80.9733 20.58 81.2933 20.74C81.6133 20.8867 81.9733 20.96 82.3733 20.96ZM95.6584 15.36C95.5251 15.32 95.3784 15.3 95.2184 15.3C94.4184 15.3 93.7451 15.5267 93.1984 15.98C92.6518 16.42 92.3784 17.06 92.3784 17.9V23H89.8984V13H92.3784V14.8C92.5918 14.3333 92.9584 13.92 93.4784 13.56C94.0118 13.1867 94.6918 13 95.5184 13H95.8384L95.6584 15.36ZM104.84 21.96C104.493 22.3467 104.08 22.6667 103.6 22.92C103.133 23.16 102.58 23.28 101.94 23.28C101.167 23.28 100.467 23.1467 99.84 22.88C99.2267 22.6133 98.7 22.2467 98.26 21.78C97.8333 21.3 97.5 20.74 97.26 20.1C97.0333 19.46 96.92 18.7667 96.92 18.02C96.92 17.2733 97.0333 16.58 97.26 15.94C97.5 15.2867 97.8333 14.7267 98.26 14.26C98.7 13.78 99.2267 13.4067 99.84 13.14C100.467 12.8733 101.167 12.74 101.94 12.74C102.58 12.74 103.133 12.8667 103.6 13.12C104.08 13.36 104.493 13.6733 104.84 14.06V13H107.3V22.5C107.3 23.22 107.16 23.8733 106.88 24.46C106.6 25.0467 106.213 25.5467 105.72 25.96C105.24 26.3733 104.66 26.6933 103.98 26.92C103.313 27.1467 102.587 27.26 101.8 27.26C101.213 27.26 100.653 27.2 100.12 27.08C99.5867 26.96 99.0933 26.7933 98.64 26.58C98.1867 26.3667 97.7867 26.1133 97.44 25.82C97.1067 25.5267 96.8467 25.2 96.66 24.84L98.78 23.62C98.9667 23.98 99.3267 24.2933 99.86 24.56C100.393 24.84 101.06 24.98 101.86 24.98C102.287 24.98 102.68 24.92 103.04 24.8C103.4 24.68 103.713 24.5067 103.98 24.28C104.247 24.0667 104.453 23.8067 104.6 23.5C104.76 23.2067 104.84 22.8733 104.84 22.5V21.96ZM102 20.96C102.413 20.96 102.793 20.8867 103.14 20.74C103.487 20.5933 103.787 20.3867 104.04 20.12C104.293 19.8533 104.487 19.54 104.62 19.18C104.767 18.82 104.84 18.4267 104.84 18C104.84 17.5733 104.767 17.1867 104.62 16.84C104.487 16.48 104.293 16.1733 104.04 15.92C103.787 15.6533 103.487 15.4467 103.14 15.3C102.793 15.1533 102.413 15.08 102 15.08C101.6 15.08 101.24 15.16 100.92 15.32C100.6 15.4667 100.32 15.68 100.08 15.96C99.8533 16.2267 99.6733 16.54 99.54 16.9C99.42 17.2467 99.36 17.62 99.36 18.02C99.36 18.42 99.42 18.8 99.54 19.16C99.6733 19.52 99.8533 19.8333 100.08 20.1C100.32 20.3667 100.6 20.58 100.92 20.74C101.24 20.8867 101.6 20.96 102 20.96ZM116.439 10.4L114.959 8.6L113.539 10.4H112.019L113.839 7.52H116.059L117.959 10.4H116.439ZM117.259 21.94C116.912 22.34 116.499 22.6667 116.019 22.92C115.552 23.16 114.999 23.28 114.359 23.28C113.585 23.28 112.885 23.1467 112.259 22.88C111.645 22.6133 111.119 22.2467 110.679 21.78C110.252 21.3 109.919 20.74 109.679 20.1C109.452 19.46 109.339 18.7667 109.339 18.02C109.339 17.2733 109.452 16.58 109.679 15.94C109.919 15.2867 110.252 14.7267 110.679 14.26C111.119 13.78 111.645 13.4067 112.259 13.14C112.885 12.8733 113.585 12.74 114.359 12.74C114.999 12.74 115.552 12.8667 116.019 13.12C116.499 13.36 116.912 13.68 117.259 14.08V13H119.739V23H117.259V21.94ZM114.419 20.96C114.832 20.96 115.212 20.8867 115.559 20.74C115.905 20.5933 116.205 20.3867 116.459 20.12C116.712 19.8533 116.905 19.54 117.039 19.18C117.185 18.82 117.259 18.4267 117.259 18C117.259 17.5733 117.185 17.1867 117.039 16.84C116.905 16.48 116.712 16.1733 116.459 15.92C116.205 15.6533 115.905 15.4467 115.559 15.3C115.212 15.1533 114.832 15.08 114.419 15.08C114.019 15.08 113.659 15.16 113.339 15.32C113.019 15.4667 112.739 15.68 112.499 15.96C112.272 16.2267 112.092 16.54 111.959 16.9C111.839 17.2467 111.779 17.62 111.779 18.02C111.779 18.42 111.839 18.8 111.959 19.16C112.092 19.52 112.272 19.8333 112.499 20.1C112.739 20.3667 113.019 20.58 113.339 20.74C113.659 20.8867 114.019 20.96 114.419 20.96ZM122.042 9H124.522V13.84C124.842 13.5333 125.216 13.2867 125.642 13.1C126.069 12.9 126.536 12.8 127.042 12.8C127.402 12.8 127.809 12.86 128.262 12.98C128.729 13.0867 129.162 13.3 129.562 13.62C129.976 13.9267 130.322 14.3533 130.602 14.9C130.882 15.4467 131.029 16.1533 131.042 17.02V23H128.562V17.08C128.562 16.6667 128.496 16.3267 128.362 16.06C128.229 15.7933 128.062 15.58 127.862 15.42C127.662 15.26 127.436 15.1467 127.182 15.08C126.942 15.0133 126.702 14.98 126.462 14.98C126.262 14.98 126.056 15.0133 125.842 15.08C125.642 15.1333 125.449 15.2267 125.262 15.36C125.089 15.4933 124.936 15.6733 124.802 15.9C124.682 16.1133 124.589 16.38 124.522 16.7V23H122.042V9Z" fill="#4B6098"/>
</svg>
