<svg width="189" height="32" viewBox="0 0 189 32" fill="none" xmlns="http://www.w3.org/2000/svg">
<path d="M43.9315 7H46.5315V21H43.9315V7ZM51.8407 13.8C51.8407 14.0667 51.9807 14.2667 52.2607 14.4C52.5541 14.5333 52.9141 14.6533 53.3407 14.76C53.7807 14.8533 54.2474 14.96 54.7407 15.08C55.2474 15.1867 55.7141 15.36 56.1407 15.6C56.5807 15.8267 56.9407 16.14 57.2207 16.54C57.5141 16.9267 57.6607 17.4467 57.6607 18.1C57.6607 18.6067 57.5407 19.06 57.3007 19.46C57.0741 19.8467 56.7607 20.1733 56.3607 20.44C55.9607 20.7067 55.5007 20.9067 54.9807 21.04C54.4607 21.1867 53.9141 21.26 53.3407 21.26C52.2874 21.26 51.3874 21.06 50.6407 20.66C49.8941 20.26 49.3407 19.6867 48.9807 18.94L51.0207 17.88C51.2074 18.3733 51.5007 18.7267 51.9007 18.94C52.3007 19.1533 52.7807 19.26 53.3407 19.26C53.5807 19.26 53.8141 19.24 54.0407 19.2C54.2674 19.1467 54.4674 19.0733 54.6407 18.98C54.8274 18.8867 54.9741 18.7667 55.0807 18.62C55.2007 18.4733 55.2607 18.3 55.2607 18.1C55.2607 17.8067 55.1141 17.5867 54.8207 17.44C54.5274 17.28 54.1607 17.1467 53.7207 17.04C53.2941 16.92 52.8207 16.8067 52.3007 16.7C51.7941 16.58 51.3207 16.4133 50.8807 16.2C50.4541 15.9733 50.0941 15.68 49.8007 15.32C49.5074 14.96 49.3607 14.48 49.3607 13.88C49.3607 13.3867 49.4674 12.9467 49.6807 12.56C49.8941 12.1733 50.1807 11.8467 50.5407 11.58C50.9141 11.3 51.3407 11.0933 51.8207 10.96C52.3141 10.8133 52.8274 10.74 53.3607 10.74C54.2274 10.74 55.0007 10.92 55.6807 11.28C56.3741 11.6267 56.9141 12.14 57.3007 12.82L55.2807 13.84C55.1074 13.48 54.8674 13.2067 54.5607 13.02C54.2541 12.82 53.8541 12.72 53.3607 12.72C52.8941 12.72 52.5207 12.82 52.2407 13.02C51.9741 13.2067 51.8407 13.4667 51.8407 13.8ZM59.9146 11H62.3746V21H59.9146V11ZM70.6495 7H73.2495V12.6H79.7095V7H82.3295V21H79.7095V15.06H73.2495V21H70.6495V7ZM92.3311 19.94C91.9844 20.34 91.5711 20.6667 91.0911 20.92C90.6244 21.16 90.0711 21.28 89.4311 21.28C88.6577 21.28 87.9577 21.1467 87.3311 20.88C86.7177 20.6133 86.1911 20.2467 85.7511 19.78C85.3244 19.3 84.9911 18.74 84.7511 18.1C84.5244 17.46 84.4111 16.7667 84.4111 16.02C84.4111 15.2733 84.5244 14.58 84.7511 13.94C84.9911 13.2867 85.3244 12.7267 85.7511 12.26C86.1911 11.78 86.7177 11.4067 87.3311 11.14C87.9577 10.8733 88.6577 10.74 89.4311 10.74C90.0711 10.74 90.6244 10.8667 91.0911 11.12C91.5711 11.36 91.9844 11.68 92.3311 12.08V11H94.8111V21H92.3311V19.94ZM89.4911 18.96C89.9044 18.96 90.2844 18.8867 90.6311 18.74C90.9777 18.5933 91.2777 18.3867 91.5311 18.12C91.7844 17.8533 91.9777 17.54 92.1111 17.18C92.2577 16.82 92.3311 16.4267 92.3311 16C92.3311 15.5733 92.2577 15.1867 92.1111 14.84C91.9777 14.48 91.7844 14.1733 91.5311 13.92C91.2777 13.6533 90.9777 13.4467 90.6311 13.3C90.2844 13.1533 89.9044 13.08 89.4911 13.08C89.0911 13.08 88.7311 13.16 88.4111 13.32C88.0911 13.4667 87.8111 13.68 87.5711 13.96C87.3444 14.2267 87.1644 14.54 87.0311 14.9C86.9111 15.2467 86.8511 15.62 86.8511 16.02C86.8511 16.42 86.9111 16.8 87.0311 17.16C87.1644 17.52 87.3444 17.8333 87.5711 18.1C87.8111 18.3667 88.0911 18.58 88.4111 18.74C88.7311 18.8867 89.0911 18.96 89.4911 18.96ZM102.776 13.36C102.643 13.32 102.496 13.3 102.336 13.3C101.536 13.3 100.863 13.5267 100.316 13.98C99.7695 14.42 99.4962 15.06 99.4962 15.9V21H97.0162V11H99.4962V12.8C99.7095 12.3333 100.076 11.92 100.596 11.56C101.13 11.1867 101.81 11 102.636 11H102.956L102.776 13.36ZM106.257 8.68C105.897 8.68 105.583 8.55333 105.317 8.3C105.05 8.04667 104.917 7.73333 104.917 7.36C104.917 6.98667 105.05 6.67333 105.317 6.42C105.583 6.15333 105.897 6.02 106.257 6.02C106.617 6.02 106.923 6.15333 107.177 6.42C107.443 6.67333 107.577 6.98667 107.577 7.36C107.577 7.73333 107.443 8.04667 107.177 8.3C106.923 8.55333 106.617 8.68 106.257 8.68ZM104.997 11H107.457V21H104.997V11ZM115.764 21C115.471 21.0267 115.191 21.0467 114.924 21.06C114.671 21.0867 114.424 21.1 114.184 21.1C113.691 21.1 113.244 21.0533 112.844 20.96C112.458 20.8533 112.124 20.6733 111.844 20.42C111.578 20.1667 111.371 19.8267 111.224 19.4C111.091 18.96 111.024 18.4067 111.024 17.74V13.22H109.144V11H111.024V8.54L113.504 7.7V11H115.724V13.22H113.504V17.58C113.504 18.0467 113.618 18.3667 113.844 18.54C114.071 18.7 114.404 18.78 114.844 18.78C115.098 18.78 115.404 18.76 115.764 18.72V21ZM125.26 19.94C124.913 20.34 124.5 20.6667 124.02 20.92C123.553 21.16 123 21.28 122.36 21.28C121.587 21.28 120.887 21.1467 120.26 20.88C119.647 20.6133 119.12 20.2467 118.68 19.78C118.253 19.3 117.92 18.74 117.68 18.1C117.453 17.46 117.34 16.7667 117.34 16.02C117.34 15.2733 117.453 14.58 117.68 13.94C117.92 13.2867 118.253 12.7267 118.68 12.26C119.12 11.78 119.647 11.4067 120.26 11.14C120.887 10.8733 121.587 10.74 122.36 10.74C123 10.74 123.553 10.8667 124.02 11.12C124.5 11.36 124.913 11.68 125.26 12.08V11H127.74V21H125.26V19.94ZM122.42 18.96C122.833 18.96 123.213 18.8867 123.56 18.74C123.907 18.5933 124.207 18.3867 124.46 18.12C124.713 17.8533 124.907 17.54 125.04 17.18C125.187 16.82 125.26 16.4267 125.26 16C125.26 15.5733 125.187 15.1867 125.04 14.84C124.907 14.48 124.713 14.1733 124.46 13.92C124.207 13.6533 123.907 13.4467 123.56 13.3C123.213 13.1533 122.833 13.08 122.42 13.08C122.02 13.08 121.66 13.16 121.34 13.32C121.02 13.4667 120.74 13.68 120.5 13.96C120.273 14.2267 120.093 14.54 119.96 14.9C119.84 15.2467 119.78 15.62 119.78 16.02C119.78 16.42 119.84 16.8 119.96 17.16C120.093 17.52 120.273 17.8333 120.5 18.1C120.74 18.3667 121.02 18.58 121.34 18.74C121.66 18.8867 122.02 18.96 122.42 18.96ZM132.43 13.8C132.43 14.0667 132.57 14.2667 132.85 14.4C133.143 14.5333 133.503 14.6533 133.93 14.76C134.37 14.8533 134.836 14.96 135.33 15.08C135.836 15.1867 136.303 15.36 136.73 15.6C137.17 15.8267 137.53 16.14 137.81 16.54C138.103 16.9267 138.25 17.4467 138.25 18.1C138.25 18.6067 138.13 19.06 137.89 19.46C137.663 19.8467 137.35 20.1733 136.95 20.44C136.55 20.7067 136.09 20.9067 135.57 21.04C135.05 21.1867 134.503 21.26 133.93 21.26C132.876 21.26 131.976 21.06 131.23 20.66C130.483 20.26 129.93 19.6867 129.57 18.94L131.61 17.88C131.796 18.3733 132.09 18.7267 132.49 18.94C132.89 19.1533 133.37 19.26 133.93 19.26C134.17 19.26 134.403 19.24 134.63 19.2C134.856 19.1467 135.056 19.0733 135.23 18.98C135.416 18.8867 135.563 18.7667 135.67 18.62C135.79 18.4733 135.85 18.3 135.85 18.1C135.85 17.8067 135.703 17.5867 135.41 17.44C135.116 17.28 134.75 17.1467 134.31 17.04C133.883 16.92 133.41 16.8067 132.89 16.7C132.383 16.58 131.91 16.4133 131.47 16.2C131.043 15.9733 130.683 15.68 130.39 15.32C130.096 14.96 129.95 14.48 129.95 13.88C129.95 13.3867 130.056 12.9467 130.27 12.56C130.483 12.1733 130.77 11.8467 131.13 11.58C131.503 11.3 131.93 11.0933 132.41 10.96C132.903 10.8133 133.416 10.74 133.95 10.74C134.816 10.74 135.59 10.92 136.27 11.28C136.963 11.6267 137.503 12.14 137.89 12.82L135.87 13.84C135.696 13.48 135.456 13.2067 135.15 13.02C134.843 12.82 134.443 12.72 133.95 12.72C133.483 12.72 133.11 12.82 132.83 13.02C132.563 13.2067 132.43 13.4667 132.43 13.8ZM140.504 11H142.964V21H140.504V11Z" fill="#4B6098"/>
<path d="M15.4006 27.9999V30.6666M23.1486 24.4799L24.8785 26.3733M5.92269 26.3733L7.65259 24.4799M26.3648 15.9999H28.8013M2 15.9999H4.43648M23.1486 7.51992L24.8785 5.62659M5.92269 5.62659L7.65259 7.51992M15.4006 1.33325V3.99992M21.4918 15.9999C21.4918 19.6818 18.7647 22.6666 15.4006 22.6666C12.0366 22.6666 9.30943 19.6818 9.30943 15.9999C9.30943 12.318 12.0366 9.33325 15.4006 9.33325C18.7647 9.33325 21.4918 12.318 21.4918 15.9999Z" stroke="#4B6098" stroke-width="2.66667" stroke-linecap="round" stroke-linejoin="round"/>
</svg>
