<svg width="126" height="33" viewBox="0 0 126 33" fill="none" xmlns="http://www.w3.org/2000/svg">
<path d="M20.5998 5.04036C20.5465 5.37369 20.5198 5.70703 20.5198 6.04036C20.5198 9.04036 22.9465 11.4657 25.9332 11.4657C26.2665 11.4657 26.5865 11.427 26.9198 11.3737V22.1324C26.9198 26.6537 24.2532 29.3337 19.7198 29.3337H9.86784C5.33317 29.3337 2.6665 26.6537 2.6665 22.1324V12.267C2.6665 7.73369 5.33317 5.04036 9.86784 5.04036H20.5998ZM20.8678 13.147C20.5065 13.107 20.1478 13.267 19.9332 13.5604L16.7078 17.7337L13.0132 14.827C12.7865 14.6537 12.5198 14.5857 12.2532 14.6137C11.9878 14.6537 11.7478 14.799 11.5865 15.0124L7.64117 20.147L7.55984 20.267C7.33317 20.6924 7.43984 21.239 7.83984 21.5337C8.0265 21.6537 8.2265 21.7337 8.45317 21.7337C8.76117 21.747 9.05317 21.5857 9.23984 21.3337L12.5865 17.0257L16.3865 19.8804L16.5065 19.959C16.9332 20.1857 17.4665 20.0804 17.7732 19.679L21.6265 14.707L21.5732 14.7337C21.7865 14.4404 21.8265 14.067 21.6798 13.7337C21.5345 13.4004 21.2132 13.1737 20.8678 13.147ZM26.12 2.66663C27.8933 2.66663 29.3333 4.10663 29.3333 5.87996C29.3333 7.65329 27.8933 9.09329 26.12 9.09329C24.3466 9.09329 22.9066 7.65329 22.9066 5.87996C22.9066 4.10663 24.3466 2.66663 26.12 2.66663Z" fill="#4B6098"/>
<path d="M49.08 12.48H45.26V10H55.56V12.48H51.7V24H49.08V12.48ZM60.0053 13.74C60.752 13.74 61.432 13.88 62.0453 14.16C62.6586 14.4267 63.1853 14.8 63.6253 15.28C64.0653 15.76 64.4053 16.32 64.6453 16.96C64.8986 17.6 65.0253 18.2867 65.0253 19.02C65.0253 19.34 64.9986 19.6333 64.9453 19.9H57.2053C57.3786 20.58 57.7253 21.1267 58.2453 21.54C58.7786 21.94 59.432 22.14 60.2053 22.14C60.6986 22.14 61.1653 22.04 61.6053 21.84C62.0586 21.6267 62.3986 21.3467 62.6253 21L64.5253 22.12C64.0586 22.8 63.4586 23.3267 62.7253 23.7C61.992 24.0733 61.1386 24.26 60.1653 24.26C59.352 24.26 58.6053 24.1267 57.9253 23.86C57.2586 23.5933 56.6853 23.2267 56.2053 22.76C55.7386 22.28 55.372 21.72 55.1053 21.08C54.852 20.44 54.7253 19.7467 54.7253 19C54.7253 18.2533 54.852 17.56 55.1053 16.92C55.372 16.28 55.732 15.7267 56.1853 15.26C56.652 14.7933 57.212 14.4267 57.8653 14.16C58.5186 13.88 59.232 13.74 60.0053 13.74ZM62.6853 17.96C62.592 17.3067 62.2986 16.8 61.8053 16.44C61.312 16.08 60.6986 15.9 59.9653 15.9C59.5786 15.9 59.2186 15.96 58.8853 16.08C58.552 16.1867 58.2586 16.3333 58.0053 16.52C57.752 16.7067 57.552 16.9267 57.4053 17.18C57.2586 17.42 57.1786 17.68 57.1653 17.96H62.6853ZM72.5241 16.36C72.3907 16.32 72.2441 16.3 72.0841 16.3C71.2841 16.3 70.6107 16.5267 70.0641 16.98C69.5174 17.42 69.2441 18.06 69.2441 18.9V24H66.7641V14H69.2441V15.8C69.4574 15.3333 69.8241 14.92 70.3441 14.56C70.8774 14.1867 71.5574 14 72.3841 14H72.7041L72.5241 16.36ZM90.0045 24H87.5245V18.02C87.5245 17.6067 87.4579 17.2667 87.3245 17C87.1912 16.7333 87.0245 16.52 86.8245 16.36C86.6245 16.2 86.3979 16.0867 86.1445 16.02C85.9045 15.9533 85.6645 15.92 85.4245 15.92C85.1845 15.92 84.9512 15.96 84.7245 16.04C84.4979 16.12 84.2912 16.26 84.1045 16.46C83.9179 16.6467 83.7645 16.9 83.6445 17.22C83.5379 17.5267 83.4845 17.92 83.4845 18.4V24H81.0045V18.02C81.0045 17.6067 80.9379 17.2667 80.8045 17C80.6712 16.7333 80.5045 16.52 80.3045 16.36C80.1045 16.2 79.8779 16.0867 79.6245 16.02C79.3845 15.9533 79.1445 15.92 78.9045 15.92C78.6645 15.92 78.4245 15.96 78.1845 16.04C77.9579 16.12 77.7512 16.26 77.5645 16.46C77.3912 16.6467 77.2445 16.9 77.1245 17.22C77.0179 17.5267 76.9645 17.92 76.9645 18.4V24H74.4845V14H76.9645V14.8C77.2845 14.4933 77.6579 14.24 78.0845 14.04C78.5112 13.84 78.9779 13.74 79.4845 13.74C79.7379 13.74 80.0112 13.7667 80.3045 13.82C80.6112 13.8733 80.9179 13.9667 81.2245 14.1C81.5445 14.2333 81.8445 14.4133 82.1245 14.64C82.4179 14.8667 82.6712 15.16 82.8845 15.52C83.1912 15.0533 83.6112 14.64 84.1445 14.28C84.6912 13.92 85.3112 13.74 86.0045 13.74C86.3645 13.74 86.7712 13.8 87.2245 13.92C87.6912 14.0267 88.1312 14.24 88.5445 14.56C88.9579 14.88 89.3045 15.32 89.5845 15.88C89.8645 16.4267 90.0045 17.14 90.0045 18.02V24ZM93.4897 11.68C93.1297 11.68 92.8164 11.5533 92.5497 11.3C92.283 11.0467 92.1497 10.7333 92.1497 10.36C92.1497 9.98667 92.283 9.67333 92.5497 9.42C92.8164 9.15333 93.1297 9.02 93.4897 9.02C93.8497 9.02 94.1564 9.15333 94.4097 9.42C94.6764 9.67333 94.8097 9.98667 94.8097 10.36C94.8097 10.7333 94.6764 11.0467 94.4097 11.3C94.1564 11.5533 93.8497 11.68 93.4897 11.68ZM92.2297 14H94.6897V24H92.2297V14ZM106.308 24H103.828V18.02C103.828 17.6067 103.761 17.2667 103.628 17C103.494 16.7333 103.328 16.52 103.128 16.36C102.928 16.2 102.701 16.0867 102.448 16.02C102.208 15.9533 101.968 15.92 101.728 15.92C101.488 15.92 101.248 15.96 101.008 16.04C100.781 16.12 100.568 16.26 100.368 16.46C100.181 16.6467 100.028 16.9 99.9078 17.22C99.7878 17.5267 99.7278 17.92 99.7278 18.4V24H97.2478V14H99.7278V14.84C100.048 14.5333 100.428 14.2733 100.868 14.06C101.308 13.8467 101.794 13.74 102.328 13.74C102.688 13.74 103.094 13.8 103.548 13.92C104.014 14.0267 104.448 14.24 104.848 14.56C105.261 14.88 105.608 15.32 105.888 15.88C106.168 16.4267 106.308 17.14 106.308 18.02V24ZM115.95 22.94C115.603 23.34 115.19 23.6667 114.71 23.92C114.243 24.16 113.69 24.28 113.05 24.28C112.277 24.28 111.577 24.1467 110.95 23.88C110.337 23.6133 109.81 23.2467 109.37 22.78C108.943 22.3 108.61 21.74 108.37 21.1C108.143 20.46 108.03 19.7667 108.03 19.02C108.03 18.2733 108.143 17.58 108.37 16.94C108.61 16.2867 108.943 15.7267 109.37 15.26C109.81 14.78 110.337 14.4067 110.95 14.14C111.577 13.8733 112.277 13.74 113.05 13.74C113.69 13.74 114.243 13.8667 114.71 14.12C115.19 14.36 115.603 14.68 115.95 15.08V14H118.43V24H115.95V22.94ZM113.11 21.96C113.523 21.96 113.903 21.8867 114.25 21.74C114.597 21.5933 114.897 21.3867 115.15 21.12C115.403 20.8533 115.597 20.54 115.73 20.18C115.877 19.82 115.95 19.4267 115.95 19C115.95 18.5733 115.877 18.1867 115.73 17.84C115.597 17.48 115.403 17.1733 115.15 16.92C114.897 16.6533 114.597 16.4467 114.25 16.3C113.903 16.1533 113.523 16.08 113.11 16.08C112.71 16.08 112.35 16.16 112.03 16.32C111.71 16.4667 111.43 16.68 111.19 16.96C110.963 17.2267 110.783 17.54 110.65 17.9C110.53 18.2467 110.47 18.62 110.47 19.02C110.47 19.42 110.53 19.8 110.65 20.16C110.783 20.52 110.963 20.8333 111.19 21.1C111.43 21.3667 111.71 21.58 112.03 21.74C112.35 21.8867 112.71 21.96 113.11 21.96ZM124.494 24C124 24.08 123.54 24.12 123.114 24.12C122.754 24.12 122.427 24.08 122.134 24C121.84 23.9067 121.587 23.76 121.374 23.56C121.174 23.3467 121.014 23.06 120.894 22.7C120.787 22.34 120.734 21.8867 120.734 21.34V10H123.214V21.18C123.214 21.4867 123.307 21.6733 123.494 21.74C123.694 21.7933 124.027 21.7867 124.494 21.72V24Z" fill="#4B6098"/>
</svg>
