<svg width="32" height="32" viewBox="0 0 32 32" fill="none" xmlns="http://www.w3.org/2000/svg">
<path fill-rule="evenodd" clip-rule="evenodd" d="M31.7333 24.4922L31.7346 24.4962C32.1746 25.0695 32.3853 26.9747 29.3679 26.6361C28.1289 26.5151 26.9111 26.2327 25.7453 25.7961C24.834 25.4468 23.9625 25.0016 23.1453 24.4682C21.9342 24.9556 20.6514 25.2411 19.3479 25.3135C18.4177 26.5617 17.2086 27.5751 15.817 28.2728C14.4254 28.9705 12.89 29.3332 11.3333 29.332C10.2829 29.3329 9.23899 29.1682 8.23993 28.844C7.65326 29.184 6.98659 29.5159 6.25059 29.7946C4.75726 30.3599 3.51859 30.5719 2.62793 30.6346C1.96126 30.6839 1.49059 30.6492 1.25859 30.6226C0.749261 30.5639 0.293261 30.2732 0.0959277 29.7853C0.011185 29.5741 -0.0181105 29.3448 0.0108293 29.1191C0.039769 28.8934 0.125981 28.6789 0.261261 28.496C0.597261 28.036 0.906594 27.5547 1.19993 27.0667C1.77059 26.1148 2.33059 25.0882 2.47193 23.9709C1.84667 22.7773 1.4691 21.4697 1.3619 20.1265C1.2547 18.7833 1.42008 17.4324 1.8481 16.1547C2.27612 14.8771 2.95796 13.6991 3.85266 12.6915C4.74736 11.684 5.83648 10.8677 7.05459 10.2916C7.48107 8.68033 8.23855 7.17563 9.27874 5.87332C10.3189 4.57102 11.619 3.49969 13.0962 2.7276C14.5733 1.95551 16.1951 1.49959 17.8583 1.38891C19.5214 1.27823 21.1893 1.51522 22.7557 2.08475C24.3222 2.65429 25.7528 3.5439 26.9564 4.69687C28.16 5.84985 29.1102 7.24091 29.7465 8.78141C30.3827 10.3219 30.691 11.978 30.6518 13.6443C30.6126 15.3105 30.2266 16.9503 29.5186 18.4592C29.2653 20.7577 30.4213 22.6923 31.7319 24.4922H31.7333ZM9.33326 13.3327C9.33399 11.9264 9.65255 10.5384 10.2651 9.27249C10.8777 8.00656 11.7685 6.89544 12.8709 6.02214C13.9733 5.14885 15.2588 4.53597 16.6313 4.22929C18.0039 3.92262 19.428 3.93009 20.7973 4.25113C22.1665 4.57218 23.4455 5.19851 24.5387 6.08332C25.6319 6.96812 26.511 8.08853 27.1102 9.3608C27.7095 10.6331 28.0135 12.0243 27.9995 13.4306C27.9854 14.8369 27.6538 16.2218 27.0293 17.4819C26.9652 17.6106 26.9225 17.7488 26.9026 17.8912C26.6106 19.9911 27.1026 21.9057 28.1093 23.7442C26.6531 23.3899 25.2805 22.7535 24.0693 21.871C23.8747 21.7299 23.6456 21.6439 23.4062 21.6224C23.1668 21.6008 22.926 21.6443 22.7093 21.7483C21.2862 22.4322 19.7129 22.7438 18.1366 22.6542C16.5603 22.5645 15.0325 22.0765 13.6962 21.2357C12.3598 20.395 11.2586 19.229 10.4956 17.8468C9.73256 16.4646 9.33265 14.9115 9.33326 13.3327ZM6.67193 13.6714C6.74692 16.3238 7.69866 18.8767 9.37837 20.9309C11.0581 22.9852 13.3711 24.4251 15.9559 25.0255C14.6502 26.0887 13.0171 26.6681 11.3333 26.6654C10.3599 26.6654 9.43593 26.4774 8.59059 26.1361C8.39271 26.0561 8.17849 26.0247 7.96596 26.0447C7.75343 26.0646 7.54879 26.1353 7.36926 26.2508C6.78393 26.6281 6.08926 27.0041 5.30526 27.3014C4.84165 27.4781 4.36738 27.6255 3.88526 27.7427C4.32926 26.9334 4.77859 25.9695 4.98393 25.0628C5.08659 24.6135 5.14393 24.1775 5.16793 23.7682C5.18419 23.505 5.12202 23.2428 4.98926 23.0149C4.33873 21.8969 3.99728 20.6259 3.99993 19.3324C3.99993 17.0526 5.03993 15.0167 6.67193 13.6714Z" fill="#4B6098"/>
</svg>
