<svg width="32" height="32" viewBox="0 0 32 32" fill="none" xmlns="http://www.w3.org/2000/svg">
<path fill-rule="evenodd" clip-rule="evenodd" d="M15.4042 1.47473C15.5892 1.38225 15.7933 1.33411 16.0002 1.33411C16.207 1.33411 16.4111 1.38225 16.5962 1.47473L29.9295 8.14139C30.1978 8.27587 30.4129 8.49694 30.54 8.76884C30.6671 9.04074 30.6987 9.34756 30.6298 9.63966C30.5608 9.93176 30.3953 10.1921 30.1601 10.3785C29.9249 10.5648 29.6336 10.6664 29.3335 10.6667H2.66683C2.3667 10.6664 2.07546 10.5648 1.84022 10.3785C1.60498 10.1921 1.43951 9.93176 1.37057 9.63966C1.30163 9.34756 1.33326 9.04074 1.46034 8.76884C1.58742 8.49694 1.80251 8.27587 2.07083 8.14139L15.4042 1.47473ZM8.31483 8.00006H23.6855L16.0002 4.15739L8.31483 8.00006ZM8.00016 12.0001C8.35378 12.0001 8.69292 12.1405 8.94297 12.3906C9.19302 12.6406 9.3335 12.9798 9.3335 13.3334V20.0001C9.3335 20.3537 9.19302 20.6928 8.94297 20.9429C8.69292 21.1929 8.35378 21.3334 8.00016 21.3334C7.64654 21.3334 7.3074 21.1929 7.05735 20.9429C6.80731 20.6928 6.66683 20.3537 6.66683 20.0001V13.3334C6.66683 12.9798 6.80731 12.6406 7.05735 12.3906C7.3074 12.1405 7.64654 12.0001 8.00016 12.0001ZM13.3335 12.0001C13.6871 12.0001 14.0263 12.1405 14.2763 12.3906C14.5264 12.6406 14.6668 12.9798 14.6668 13.3334V20.0001C14.6668 20.3537 14.5264 20.6928 14.2763 20.9429C14.0263 21.1929 13.6871 21.3334 13.3335 21.3334C12.9799 21.3334 12.6407 21.1929 12.3907 20.9429C12.1406 20.6928 12.0002 20.3537 12.0002 20.0001V13.3334C12.0002 12.9798 12.1406 12.6406 12.3907 12.3906C12.6407 12.1405 12.9799 12.0001 13.3335 12.0001ZM18.6668 12.0001C19.0205 12.0001 19.3596 12.1405 19.6096 12.3906C19.8597 12.6406 20.0002 12.9798 20.0002 13.3334V20.0001C20.0002 20.3537 19.8597 20.6928 19.6096 20.9429C19.3596 21.1929 19.0205 21.3334 18.6668 21.3334C18.3132 21.3334 17.9741 21.1929 17.724 20.9429C17.474 20.6928 17.3335 20.3537 17.3335 20.0001V13.3334C17.3335 12.9798 17.474 12.6406 17.724 12.3906C17.9741 12.1405 18.3132 12.0001 18.6668 12.0001ZM24.0002 12.0001C24.3538 12.0001 24.6929 12.1405 24.943 12.3906C25.193 12.6406 25.3335 12.9798 25.3335 13.3334V20.0001C25.3335 20.3537 25.193 20.6928 24.943 20.9429C24.6929 21.1929 24.3538 21.3334 24.0002 21.3334C23.6465 21.3334 23.3074 21.1929 23.0574 20.9429C22.8073 20.6928 22.6668 20.3537 22.6668 20.0001V13.3334C22.6668 12.9798 22.8073 12.6406 23.0574 12.3906C23.3074 12.1405 23.6465 12.0001 24.0002 12.0001ZM4.00016 24.0001C4.00016 23.6464 4.14064 23.3073 4.39069 23.0572C4.64074 22.8072 4.97987 22.6667 5.3335 22.6667H26.6668C27.0205 22.6667 27.3596 22.8072 27.6096 23.0572C27.8597 23.3073 28.0002 23.6464 28.0002 24.0001C28.0002 24.3537 27.8597 24.6928 27.6096 24.9429C27.3596 25.1929 27.0205 25.3334 26.6668 25.3334H5.3335C4.97987 25.3334 4.64074 25.1929 4.39069 24.9429C4.14064 24.6928 4.00016 24.3537 4.00016 24.0001ZM1.3335 28.0001C1.3335 27.6464 1.47397 27.3073 1.72402 27.0572C1.97407 26.8072 2.31321 26.6667 2.66683 26.6667H29.3335C29.6871 26.6667 30.0263 26.8072 30.2763 27.0572C30.5264 27.3073 30.6668 27.6464 30.6668 28.0001C30.6668 28.3537 30.5264 28.6928 30.2763 28.9429C30.0263 29.1929 29.6871 29.3334 29.3335 29.3334H2.66683C2.31321 29.3334 1.97407 29.1929 1.72402 28.9429C1.47397 28.6928 1.3335 28.3537 1.3335 28.0001Z" fill="#4B6098"/>
</svg>
