<svg width="28" height="28" viewBox="0 0 28 28" fill="none" xmlns="http://www.w3.org/2000/svg">
<path d="M14.6291 2.69287C15.4991 2.69287 16.2867 3.17601 16.7217 3.88921C16.9333 4.23431 17.0743 4.65993 17.0391 5.10856C17.0156 5.45366 17.1214 5.79875 17.3095 6.12085C17.909 7.09862 19.2374 7.46673 20.2719 6.91457C21.4358 6.24738 22.9052 6.65 23.5753 7.78882L24.363 9.1462C25.0448 10.285 24.6686 11.7459 23.493 12.4016C22.4938 12.9883 22.1411 14.2882 22.7407 15.2774C22.9288 15.588 23.1404 15.8526 23.4695 16.0137C23.881 16.2322 24.1984 16.5773 24.4217 16.9224C24.8567 17.6356 24.8214 18.5099 24.3982 19.2806L23.5753 20.661C23.1404 21.3972 22.3292 21.8573 21.4945 21.8573C21.0831 21.8573 20.6246 21.7423 20.2484 21.5122C19.9428 21.3167 19.5901 21.2476 19.2139 21.2476C18.0501 21.2476 17.0743 22.2024 17.0391 23.3412C17.0391 24.6641 15.9575 25.6994 14.6056 25.6994H13.0068C11.6431 25.6994 10.5616 24.6641 10.5616 23.3412C10.5381 22.2024 9.56235 21.2476 8.39852 21.2476C8.01058 21.2476 7.65791 21.3167 7.36401 21.5122C6.98782 21.7423 6.51759 21.8573 6.11789 21.8573C5.27147 21.8573 4.46032 21.3972 4.02535 20.661L3.2142 19.2806C2.77923 18.5329 2.75572 17.6356 3.19068 16.9224C3.37878 16.5773 3.73145 16.2322 4.13115 16.0137C4.46032 15.8526 4.67192 15.588 4.87177 15.2774C5.45956 14.2882 5.10689 12.9883 4.10764 12.4016C2.94381 11.7459 2.56762 10.285 3.23771 9.1462L4.02535 7.78882C4.70719 6.65 6.16491 6.24738 7.3405 6.91457C8.36326 7.46673 9.69167 7.09862 10.2912 6.12085C10.4793 5.79875 10.5851 5.45366 10.5616 5.10856C10.5381 4.65993 10.6674 4.23431 10.8908 3.88921C11.3257 3.17601 12.1134 2.71588 12.9715 2.69287H14.6291ZM13.818 10.9522C11.9723 10.9522 10.4793 12.4016 10.4793 14.2076C10.4793 16.0137 11.9723 17.4516 13.818 17.4516C15.6636 17.4516 17.1214 16.0137 17.1214 14.2076C17.1214 12.4016 15.6636 10.9522 13.818 10.9522Z" fill="#141A2A"/>
</svg>
